<mxfile host="app.diagrams.net" modified="2022-09-19T16:00:02.431Z" agent="5.0 (Windows NT 10.0; Win64; x64) AppleWebKit/537.36 (KHTML, like Gecko) Chrome/105.0.0.0 Safari/537.36" etag="8HpYMw56o_RmdZ_O2bPb" version="20.2.8" type="github">
  <diagram id="xRdBkmZJWywrO5ZUVtSE" name="第 1 页">
    <mxGraphModel dx="1116" dy="1897" grid="1" gridSize="10" guides="1" tooltips="1" connect="1" arrows="1" fold="1" page="1" pageScale="1" pageWidth="827" pageHeight="1169" math="0" shadow="0">
      <root>
        <mxCell id="0" />
        <mxCell id="1" parent="0" />
        <mxCell id="rrP_42tww3gmWO-2TFaA-5" value="" style="edgeStyle=orthogonalEdgeStyle;rounded=0;orthogonalLoop=1;jettySize=auto;html=1;" edge="1" parent="1" source="rrP_42tww3gmWO-2TFaA-1" target="rrP_42tww3gmWO-2TFaA-2">
          <mxGeometry relative="1" as="geometry" />
        </mxCell>
        <mxCell id="rrP_42tww3gmWO-2TFaA-1" value="Feature Detection" style="rounded=1;fillColor=#23445D;gradientColor=none;strokeColor=none;fontColor=#FFFFFF;fontStyle=1;fontFamily=Tahoma;fontSize=14" vertex="1" parent="1">
          <mxGeometry x="160" y="-450" width="190" height="80" as="geometry" />
        </mxCell>
        <mxCell id="rrP_42tww3gmWO-2TFaA-6" value="" style="edgeStyle=orthogonalEdgeStyle;rounded=0;orthogonalLoop=1;jettySize=auto;html=1;" edge="1" parent="1" source="rrP_42tww3gmWO-2TFaA-2" target="rrP_42tww3gmWO-2TFaA-3">
          <mxGeometry relative="1" as="geometry" />
        </mxCell>
        <mxCell id="rrP_42tww3gmWO-2TFaA-2" value="Feature Description" style="rounded=1;fillColor=#23445D;gradientColor=none;strokeColor=none;fontColor=#FFFFFF;fontStyle=1;fontFamily=Tahoma;fontSize=14" vertex="1" parent="1">
          <mxGeometry x="399.9999999999999" y="-450" width="190" height="80" as="geometry" />
        </mxCell>
        <mxCell id="rrP_42tww3gmWO-2TFaA-7" value="" style="edgeStyle=orthogonalEdgeStyle;rounded=0;orthogonalLoop=1;jettySize=auto;html=1;" edge="1" parent="1" source="rrP_42tww3gmWO-2TFaA-3" target="rrP_42tww3gmWO-2TFaA-4">
          <mxGeometry relative="1" as="geometry" />
        </mxCell>
        <mxCell id="rrP_42tww3gmWO-2TFaA-3" value="Feature Matching" style="rounded=1;fillColor=#23445D;gradientColor=none;strokeColor=none;fontColor=#FFFFFF;fontStyle=1;fontFamily=Tahoma;fontSize=14" vertex="1" parent="1">
          <mxGeometry x="637" y="-450" width="190" height="80" as="geometry" />
        </mxCell>
        <mxCell id="rrP_42tww3gmWO-2TFaA-4" value="Matching Evaluation" style="rounded=1;fillColor=#23445D;gradientColor=none;strokeColor=none;fontColor=#FFFFFF;fontStyle=1;fontFamily=Tahoma;fontSize=14" vertex="1" parent="1">
          <mxGeometry x="870" y="-450" width="190" height="80" as="geometry" />
        </mxCell>
      </root>
    </mxGraphModel>
  </diagram>
</mxfile>
